<svg xmlns="http://www.w3.org/2000/svg" width="100%" height="auto" viewBox="0 0 1024 1024" version="1.1">
	<path d="M 38 457 L 38 658 77.500 658 L 117 658 117 457 L 117 256 77.500 256 L 38 256 38 457 M 222 456.922 L 222 658 297.693 658 C 377.963 658, 392.097 657.456, 416.719 653.417 C 466.881 645.188, 504.207 624.183, 530.299 589.500 C 537.795 579.536, 549.201 557.479, 553.869 543.921 C 568.476 501.496, 570.607 437.088, 559.010 388.500 C 546.806 337.367, 519.411 301.254, 476 279.076 C 455.866 268.790, 434.407 262.552, 404.500 258.293 C 395.426 257.001, 378.483 256.649, 307.750 256.285 L 222 255.845 222 456.922 M 651 457 L 651 658 688.996 658 L 726.993 658 727.246 520.250 L 727.500 382.500 731.112 382.198 L 734.725 381.896 750.038 406.698 C 758.460 420.339, 769.918 438.925, 775.500 448 C 781.082 457.075, 794.053 478.113, 804.325 494.750 C 828.198 533.420, 855.090 577.028, 878.324 614.750 C 888.403 631.113, 898.568 647.538, 900.914 651.250 L 905.179 658 945.590 658 L 986 658 986 457 L 986 256 948 256 L 910 256 910 384.875 L 910 513.750 906.897 514.371 C 905.191 514.712, 903.459 514.784, 903.049 514.531 C 902.160 513.981, 899.668 510.036, 862.273 450 C 846.343 424.425, 820.131 382.350, 804.024 356.500 C 787.918 330.650, 767.260 297.471, 758.120 282.769 L 741.500 256.038 696.250 256.019 L 651 256 651 457 M 301 456.908 L 301 591 338.250 590.980 C 386.641 590.955, 398.241 589.527, 420.720 580.827 C 457.016 566.780, 476.765 537.406, 483.130 488 C 484.921 474.099, 484.659 438.092, 482.661 423.500 C 476.127 375.787, 456.584 347.420, 420.500 333.274 C 398.793 324.764, 391.692 323.852, 342.750 323.293 L 301 322.815 301 456.908" stroke="none" fill="black" fill-rule="evenodd"/>
</svg>